<svg xmlns="http://www.w3.org/2000/svg" viewBox="0 0 1456 821" height="821" width="1456">
    <defs>
        <clipPath id="a">
            <path d="M1178.73 389.06l87 186.67C1319 690 1235.59 821 1109.48 821H371.55c-139.76 0-221.44-157.56-140.9-271.78l41.19-58.42a58.94 58.94 0 0 0 5.26-58.87l-87-186.67C136.79 131 220.23 0 346.34 0h737.93c139.76 0 221.45 157.56 140.9 271.78L1184 330.2a58.92 58.92 0 0 0-5.27 58.86z" fill="none"/>
        </clipPath>
    </defs>
    <g clip-path="url(#a)" data-name="Layer 7">
        <path d="M1178.73 389.06l87 186.67C1319 690 1235.59 821 1109.48 821H371.55c-139.76 0-221.44-157.56-140.9-271.78l41.19-58.42a58.94 58.94 0 0 0 5.26-58.87l-87-186.67C136.79 131 220.23 0 346.34 0h737.93c139.76 0 221.45 157.56 140.9 271.78L1184 330.2a58.92 58.92 0 0 0-5.27 58.86z" fill="#ffd7e4"/>
        <path fill="#99644d" d="M735.98 644.97l720.94 135.81v-289.5H779.77l-43.79 153.69z"/>
        <path d="M779.77 491.28L829 662.5a153.81 153.81 0 0 0-125.75 32l-35.16 28.7a67 67 0 0 1-41.25 14.21l-.36-19.32a31.15 31.15 0 0 0-31.16-30.57H441.15z" fill="#99644d"/>
        <path fill="#fff" d="M982.72 381.53l135.8-720.94H829.03v677.15l153.69 43.79zm24.52 21.75l18 273.08-244.82-40v-137a145.43 145.43 0 0 1 20.39-74.27l7.82-13.09A145.44 145.44 0 0 0 829 337.74z"/>
        <path d="M1024.93 681.43a40.31 40.31 0 0 1-34 34.52 39.72 39.72 0 0 1-31.59-9.23 22.65 22.65 0 0 0-20.1-4.72 40.42 40.42 0 0 1-8.94 1 39.86 39.86 0 0 1-25.79-9.46 23.05 23.05 0 0 0-20.26-4.83 40 40 0 0 1-34.75-8.54 22.16 22.16 0 0 0-19.7-5 40.55 40.55 0 0 1-16.26.54 40 40 0 1 1 41-60.15 39.43 39.43 0 0 1 20.82-5.89 40 40 0 0 1 34.22 19.19A38.82 38.82 0 0 1 930.3 623a39.64 39.64 0 0 1 34.12 19.29 39.5 39.5 0 0 1 20.81-5.88 40 40 0 0 1 39.7 45.02z" fill="#fff"/>
        <path d="M829 337.74l171.21-49.26a153.81 153.81 0 0 0 32 125.75l28.7 35.16a67 67 0 0 1 14.21 41.25l-19.32.36a31.16 31.16 0 0 0-30.58 31.16v154.2z" fill="#fff"/>
        <path fill="#c78982" d="M719.83 176.03L-1.1 40.22v289.49h677.14l43.79-153.68z"/>
        <path d="M741.58 151.5l273.08-18-40 244.83h-137a145.42 145.42 0 0 1-74.27-20.4l-13.13-7.79A145.42 145.42 0 0 0 676 329.71z" fill="#c78982"/>
        <path d="M1019.73 133.81a40.31 40.31 0 0 1 34.52 34 39.71 39.71 0 0 1-9.22 31.59 22.59 22.59 0 0 0-4.68 20.06 40.44 40.44 0 0 1 1 8.95 39.81 39.81 0 0 1-9.47 25.78 23.05 23.05 0 0 0-4.83 20.26 40 40 0 0 1-8.54 34.75 22.21 22.21 0 0 0-5 19.71 40.67 40.67 0 0 1 .54 16.25 40 40 0 1 1-60.16-41 39.52 39.52 0 0 1-5.89-20.78 40 40 0 0 1 19.2-34.22 38.81 38.81 0 0 1-5.89-20.71 39.63 39.63 0 0 1 19.29-34.13 39.42 39.42 0 0 1-5.89-20.81 40 40 0 0 1 45.02-39.7z" fill="#c78982"/>
        <path d="M676 329.71L626.79 158.5a153.83 153.83 0 0 0 125.75-32l35.15-28.7A67 67 0 0 1 829 83.59l.36 19.31a31.15 31.15 0 0 0 31.15 30.58h154.2z" fill="#c78982"/>
        <path fill="#ffafa1" d="M473.1 439.47L337.29 1160.4l289.5 298.31V483.26L473.1 439.47z"/>
        <path d="M448.57 417.72l-18-273.08 244.82 40v137A145.51 145.51 0 0 1 655 395.86L647.18 409a145.41 145.41 0 0 0-20.39 74.27z" fill="#ffafa1"/>
        <path d="M430.89 139.57a40.31 40.31 0 0 1 34-34.52 39.7 39.7 0 0 1 31.59 9.23 22.65 22.65 0 0 0 20.09 4.72 40.44 40.44 0 0 1 8.95-1 39.81 39.81 0 0 1 25.78 9.46 23.06 23.06 0 0 0 20.26 4.83 40.24 40.24 0 0 1 8.89-1 39.77 39.77 0 0 1 25.87 9.53 22.18 22.18 0 0 0 19.7 5 40.73 40.73 0 0 1 16.26-.53 40 40 0 1 1-41 60.15 39.43 39.43 0 0 1-20.82 5.89 40 40 0 0 1-34.22-19.19 38.88 38.88 0 0 1-20.72 5.86 39.62 39.62 0 0 1-34.12-19.3 39.45 39.45 0 0 1-20.82 5.89 39.93 39.93 0 0 1-39.69-45.02z" fill="#ffafa1"/>
        <path d="M626.79 483.26l-171.22 49.25a153.8 153.8 0 0 0-32-125.74l-28.7-35.16a67 67 0 0 1-14.21-41.26L400 330a31.14 31.14 0 0 0 30.57-31.15V144.64z" fill="#ffafa1"/>
        <path d="M714.23 669.5l-273.08 18 40-244.82h137a145.53 145.53 0 0 1 74.27 20.39l13.12 7.8a145.43 145.43 0 0 0 74.27 20.39z" fill="#99644d"/>
        <path d="M436.08 687.18a40.31 40.31 0 0 1-34.52-34 39.7 39.7 0 0 1 9.23-31.59 22.65 22.65 0 0 0 4.68-20.06 40.44 40.44 0 0 1-1-9 39.81 39.81 0 0 1 9.46-25.78 23.06 23.06 0 0 0 4.83-20.26 40.24 40.24 0 0 1-1-8.89 39.77 39.77 0 0 1 9.53-25.87 22.16 22.16 0 0 0 5-19.7A40 40 0 0 1 476.16 443a40 40 0 0 1 25.75 73.84 39.43 39.43 0 0 1 5.89 20.82 40 40 0 0 1-19.19 34.22 38.79 38.79 0 0 1 5.89 20.71 39.63 39.63 0 0 1-19.29 34.12 39.54 39.54 0 0 1 5.88 20.82 39.93 39.93 0 0 1-45.01 39.65z" fill="#99644d"/>
        <path d="M595.35 687.52a31.15 31.15 0 0 1 31.16 30.57l.36 19.32a67 67 0 0 0 41.25-14.21l35.16-28.7a154 154 0 0 1 34.9-21.44l-23.3-144.17-273.73 158.63z" fill="#99644d"/>
        <path d="M780.7 491.27h-.92a145.56 145.56 0 0 1-74.27-20.39l-13.13-7.8a145.46 145.46 0 0 0-60-19.68 146.14 146.14 0 0 1 14.81-34.4l7.8-13.12a145.74 145.74 0 0 0 20.15-66.15h.91a145.38 145.38 0 0 1 74.28 20.4l13.12 7.8a145.5 145.5 0 0 0 60 19.67 144.73 144.73 0 0 1-14.82 34.4l-7.78 13.12a145.41 145.41 0 0 0-20.15 66.15z" fill="#ffd7e4"/>
    </g>
</svg>
