<svg xmlns="http://www.w3.org/2000/svg" viewBox="0 0 1456 821" height="821" width="1456">
    <g data-name="Layer 7">
        <path fill="#fff" d="M477.94 536.74h515.59V821H477.94z"/>
        <path d="M1153 425.08V821H956.42a38.73 38.73 0 0 1-38.17-45.28l22.06-128.63.14-55a35.66 35.66 0 0 0-35.72-35.75l-353.73.59a35.67 35.67 0 0 0-35.6 35.66V648l21.48 127.9a38.74 38.74 0 0 1-38.24 45.1H302.83V425.08c0-187.13 120.92-346 288.88-402.79A423.41 423.41 0 0 1 709.17.41Q718.49 0 727.91 0q8.36 0 16.64.32A425.08 425.08 0 0 1 1153 425.08z" fill="#47b274"/>
        <path d="M617.3 368l-.18 84.29A30.65 30.65 0 0 0 647.85 483l160.39-.32a31 31 0 0 0 30.87-30.87l.16-84.29zm171.52 64.4a27.68 27.68 0 0 1-19.54 8.13l-82.28.14a27.46 27.46 0 0 1-27.54-27.54 27.72 27.72 0 0 1 27.67-27.66l82.28-.15a27.54 27.54 0 0 1 19.41 47.08zm83.67-123.73v14.87a26.24 26.24 0 0 1-7.72 18.46l-25.5 25.49-222 .46-25.38-25.38a26 26 0 0 1-7.6-18.44v-14.87z" fill="#fff"/>
        <path d="M939.79 176.63l-.22 98.66a33.43 33.43 0 0 1-33.33 33.32l-355.65.73a33.07 33.07 0 0 1-33.17-33.17l.23-98.67A33.43 33.43 0 0 1 551 144.18l24.55-.06 331.1-.66a33.05 33.05 0 0 1 33.14 33.17z"/>
        <path d="M866.13 23l-.35 219.71-274.43.72.36-221.13A423.41 423.41 0 0 1 709.17.41l35.38-.09A423.17 423.17 0 0 1 866.13 23z" fill="#276ef1"/>
        <path d="M816.81 611.5l-178 .32a31 31 0 0 1-31.13-31.13v-23.82l240.38-.46v23.82a31.37 31.37 0 0 1-31.25 31.27z" fill="#ffd7e4"/>
    </g>
</svg>
